<?xml version="1.0" encoding="UTF-8"?><svg id="Originales" xmlns="http://www.w3.org/2000/svg" viewBox="0 0 929.86 929.86"><g id="Logo_ver_imagotipo"><g id="Imagotipo"><path d="m529.04,708.22c16.28,16.71,26.32,39.6,26.32,64.34s-9.96,46.97-26.11,63.21c-.25.25-.5.5-.77.76-16.32,16.05-38.78,25.95-63.56,25.95s-47.28-9.94-63.61-26.01l-.33-.33c-.07-.07-.13-.13-.19-.19l-64.23-63.86-244.08-242.72c-16.32-16.26-26.43-38.72-26.43-63.53s10.77-49.21,28.03-66.06l62.39-62.04,180.09-179.09,65.97-65.59c16.23-15.83,38.21-25.71,62.4-25.71s45.76,9.7,61.94,25.28l2.18,2.16c16.27,16.71,26.32,39.6,26.32,64.34s-9.45,45.8-24.86,61.93c-.04.04-.07.07-.11.12l-3.06,3.05s-.08.07-.12.11l-62.29,61.95-111.8,111.17c-2.06,1.88-4.05,3.84-5.94,5.91-.02,0-.04.03-.05.05-15.19,16.53-24.5,38.61-24.5,62.42s9,44.76,23.76,60.76c1.78,1.92,3.64,3.78,5.57,5.54l174.89,173.91,2.18,2.16Z" style="fill:#ed1e79;"/><path d="m863.79,465.85c0,24.64-9.96,46.98-26.1,63.21-.26.25-.51.5-.77.76l-63.57,63.2-103.55,102.98c-.25.25-.5.5-.77.76-16.32,16.05-38.78,25.95-63.56,25.95-49.94,0-90.43-40.26-90.43-89.93,0-24.83,10.12-47.79,26.49-64.52l1.77-1.76,35.09-34.9c1.54-1.42,3.03-2.9,4.45-4.43,15.07-16.06,24.3-37.63,24.3-61.33s-9.48-46.29-24.91-62.88c-.02-.02-.04-.04-.06-.06-1.6-1.71-3.26-3.36-4.98-4.95-.02-.02-.04-.04-.06-.06l-36.76-36.56c-.51-.5-1.03-1.01-1.53-1.52-15.92-16.21-25.73-38.38-25.73-62.82,0-49.66,40.49-91.78,90.43-91.78,23.96,0,45.76,9.7,61.94,25.28l2.18,2.16,105.67,105.09,61.83,61.47,2.29,2.28s.06.06.08.08c16.21,16.71,26.23,39.56,26.23,64.26Z" style="fill:#ed1e79;"/><path d="m427.91,551.28l-49.4-49.12c-20.39-20.28-20.39-53.15,0-73.43l49.4-49.12c20.39-20.28,53.45-20.28,73.84,0l49.4,49.12c20.39,20.28,20.39,53.15,0,73.43l-49.4,49.12c-20.39,20.28-53.45,20.28-73.84,0Z" style="fill:#2d2d2d;"/></g></g></svg>