<?xml version="1.0" encoding="UTF-8"?><svg id="Original_FondoOscuro" xmlns="http://www.w3.org/2000/svg" viewBox="0 0 1654.57 495.02"><g id="Logo_Ver_Horizontal_copia_3"><g><g id="Imagotipo"><path d="m224.27,327.5c5.86,6.02,9.48,14.27,9.48,23.18s-3.59,16.92-9.41,22.77c-.09.09-.18.18-.28.27-5.88,5.78-13.97,9.35-22.9,9.35s-17.03-3.58-22.92-9.37l-.12-.12s-.05-.05-.07-.07l-23.14-23.01-87.94-87.45c-5.88-5.86-9.52-13.95-9.52-22.89s3.88-17.73,10.1-23.8l22.48-22.35,64.89-64.53,23.77-23.63c5.85-5.7,13.77-9.26,22.48-9.26s16.49,3.5,22.32,9.11l.78.78c5.86,6.02,9.48,14.27,9.48,23.18s-3.4,16.5-8.96,22.31c-.01.01-.03.03-.04.04l-1.1,1.1s-.03.03-.04.04l-22.44,22.32-40.28,40.06c-.74.68-1.46,1.39-2.14,2.13,0,0-.01.01-.02.02-5.47,5.96-8.83,13.91-8.83,22.49s3.24,16.13,8.56,21.89c.64.69,1.31,1.36,2.01,2l63.01,62.66.78.78Z" style="fill:#ed1e79;"/><path d="m344.88,240.17c0,8.88-3.59,16.93-9.4,22.77-.09.09-.19.18-.28.27l-22.9,22.77-37.31,37.1c-.09.09-.18.18-.28.27-5.88,5.78-13.97,9.35-22.9,9.35-17.99,0-32.58-14.51-32.58-32.4,0-8.95,3.65-17.22,9.55-23.25l.64-.64,12.64-12.57c.56-.51,1.09-1.04,1.6-1.6,5.43-5.78,8.75-13.56,8.75-22.1s-3.42-16.68-8.98-22.65c0,0-.01-.01-.02-.02-.58-.62-1.17-1.21-1.79-1.78,0,0-.01-.01-.02-.02l-13.25-13.17c-.19-.18-.37-.36-.55-.55-5.74-5.84-9.27-13.83-9.27-22.63,0-17.89,14.59-33.07,32.58-33.07,8.63,0,16.49,3.5,22.32,9.11l.78.78,38.07,37.86,22.28,22.15.82.82s.02.02.03.03c5.84,6.02,9.45,14.25,9.45,23.15Z" style="fill:#ed1e79;"/><path d="m187.83,270.95l-17.8-17.7c-7.35-7.31-7.35-19.15,0-26.46l17.8-17.7c7.35-7.31,19.26-7.31,26.61,0l17.8,17.7c7.35,7.31,7.35,19.15,0,26.46l-17.8,17.7c-7.35,7.31-19.26,7.31-26.61,0Z" style="fill:#ededed;"/></g><text transform="translate(406.62 310.51)" style="fill:#ededed; font-family:K2D-Medium, K2D; font-size:196.45px; font-weight:500;"><tspan x="0" y="0" style="letter-spacing:-.02em;">C</tspan><tspan x="129.66" y="0">ar</tspan><tspan x="316.29" y="0" style="letter-spacing:-.02em;">lo</tspan><tspan x="478.56" y="0">s </tspan><tspan x="629.23" y="0" style="letter-spacing:-.08em;">A</tspan><tspan x="746.52" y="0" style="letter-spacing:-.02em;">j</tspan><tspan x="818.03" y="0">e</tspan><tspan x="921.36" y="0" style="letter-spacing:-.1em;">n</tspan><tspan x="1010.74" y="0">jo</tspan></text></g></g></svg>