<?xml version="1.0" encoding="utf-8"?>
<!-- Generator: Adobe Illustrator 27.1.1, SVG Export Plug-In . SVG Version: 6.00 Build 0)  -->
<svg version="1.1" id="Capa_1" xmlns="http://www.w3.org/2000/svg" xmlns:xlink="http://www.w3.org/1999/xlink" x="0px" y="0px"
	 viewBox="0 0 2490 2500" style="enable-background:new 0 0 2490 2500;" xml:space="preserve">
<style type="text/css">
	.st0{fill:#EDEDED;}
	.st1{fill:#ED1E79;}
</style>
<path class="st0" d="M2451,404.2L1310.5,2443.6c-23.5,42.1-84,42.4-107.9,0.5L39.5,404.4c-26-45.7,13-101,64.7-91.7l1141.7,204.1
	c7.3,1.3,14.7,1.3,22,0l1117.8-203.7C2437.4,303.5,2476.6,358.4,2451,404.2z"/>
<g>
	<path class="st1" d="M1253.1,2094.4c-15.7,0-31-7.2-40.9-19.4c-9.7-11.9-13.3-27.1-10.1-42.7l110.9-537c0.8-4-0.7-7-2.1-8.7
		c-2-2.5-5-4-8.1-4c-1,0-2.1,0.2-3.2,0.5l-145.1,44.1c-4.9,1.5-10,2.3-15.1,2.3c-15.4,0-30-6.9-39.8-19c-9.8-12-13.6-27.6-10.5-42.8
		l69.8-341.9c0.8-4-0.7-7-2.1-8.7c-2-2.5-5-3.9-8-3.9c-0.8,0-1.6,0.1-2.5,0.3l-235,54.2c-3.8,0.9-7.7,1.3-11.6,1.3c-1,0-2,0-3.1-0.1
		c-28.3-1.7-50-26.1-48.4-54.5l51.9-876.8c1.4-23.4,18.5-43,41.5-47.5c0,0,844.2-165.4,844.3-165.4c3.2-0.6,6.5-0.9,9.7-0.9
		c16,0,31.3,7.7,41,20.6c9.8,13,12.8,29.5,8.3,45.2l-157.9,547.3c-1.3,4.4,0.5,7.6,1.7,9.2c1,1.3,3.7,4.2,8.3,4.2
		c0.7,0,1.4-0.1,2.1-0.2l241.9-46.7c3.3-0.6,6.7-1,10-1c17.8,0,34.2,9.2,43.6,24.5c9.4,15.3,10.2,34,2.2,50.1l-687.7,1372.5
		c-0.3,0.7-0.7,1.3-1.1,2l-12.5,19.2C1286.1,2085.8,1270.5,2094.4,1253.1,2094.4z"/>
	<path class="st0" d="M1795.9,44.4c20,0,35.5,19.3,29.6,39.6l-157.9,547.3c-5.8,20.2,9.7,39.6,29.6,39.6c2,0,4-0.2,6-0.6l241.9-46.7
		c2.1-0.4,4.1-0.6,6.1-0.6c22.2,0,38.1,23.8,27.5,44.9L1291,2040.4l-12.5,19.2c-6.4,10-16,14.3-25.5,14.3
		c-17.9,0-35.4-15.4-30.9-37.4l110.9-537c4.1-19.9-11.4-37.3-30.2-37.3c-3,0-6,0.4-9.1,1.4l-145.1,44.1c-3.1,0.9-6.1,1.4-9.1,1.4
		c-18.8,0-34.3-17.4-30.2-37.2l69.8-341.9c4-19.7-11.3-37.2-30.2-37.2c-2.3,0-4.7,0.3-7.1,0.8l-235,54.2c-2.3,0.5-4.6,0.8-7,0.8
		c-0.6,0-1.2,0-1.8-0.1c-17.1-1-30.1-15.7-29.1-32.8l51.9-876.8c0.8-14.1,11.1-25.9,25-28.6l844-165.4l0,0
		C1791.9,44.6,1793.9,44.4,1795.9,44.4 M1795.9,3.4c-4.5,0-9,0.4-13.5,1.3c-0.2,0-0.3,0.1-0.5,0.1l-844,165.4
		c-32.2,6.3-56.1,33.6-58,66.4L828,1113.3c-1.1,19.2,5.3,37.7,18,52.1c12.8,14.4,30.4,22.9,49.6,24.1c1.4,0.1,2.8,0.1,4.3,0.1
		c5.4,0,10.9-0.6,16.2-1.8l219.8-50.7l-66.7,326.6c-4.3,21.3,1,43.1,14.7,59.9c13.8,16.9,34.1,26.5,55.7,26.5c7.1,0,14.2-1.1,21-3.1
		l129-39.2l-107.5,520.5c-4.4,21.4,0.8,43.2,14.2,59.8c13.7,16.9,35,26.9,56.8,26.9c11.6,0,23-2.8,33.1-8.2
		c10.7-5.7,20-14.3,26.8-24.8l12.4-19.2c0.8-1.3,1.6-2.6,2.2-3.9l687.7-1372.5c11.3-22.5,10.1-48.6-3.1-70
		c-6.2-10.1-14.9-18.6-25.1-24.6c-10.9-6.4-23.3-9.7-35.9-9.7c-4.6,0-9.3,0.4-13.9,1.3l-225.8,43.6l153.3-531.6
		c6.3-22,2.1-45-11.6-63.2C1839.8,14.1,1818.3,3.4,1795.9,3.4L1795.9,3.4z"/>
</g>
</svg>
